<?xml version="1.0" encoding="UTF-8"?>
<!DOCTYPE svg PUBLIC "-//W3C//DTD SVG 1.1//EN" "http://www.w3.org/Graphics/SVG/1.1/DTD/svg11.dtd">
<svg xmlns="http://www.w3.org/2000/svg" version="1.1" width="1040px" height="905px" style="shape-rendering:geometricPrecision; text-rendering:geometricPrecision; image-rendering:optimizeQuality; fill-rule:evenodd; clip-rule:evenodd" xmlns:xlink="http://www.w3.org/1999/xlink">
<g><path style="opacity:0.994" fill="#32cb63" d="M 529.5,-0.5 C 538.5,-0.5 547.5,-0.5 556.5,-0.5C 591.941,7.10877 613.108,28.7754 620,64.5C 620.667,322.833 620.667,581.167 620,839.5C 613.108,875.225 591.941,896.891 556.5,904.5C 547.5,904.5 538.5,904.5 529.5,904.5C 495.383,897.217 474.216,876.551 466,842.5C 464.84,712.355 464.34,582.189 464.5,452C 464.34,321.811 464.84,191.645 466,61.5C 474.216,27.4494 495.383,6.78271 529.5,-0.5 Z"/></g>
<g><path style="opacity:0.988" fill="#32cb63" d="M 323.5,904.5 C 314.5,904.5 305.5,904.5 296.5,904.5C 261.951,897.119 240.785,876.119 233,841.5C 231.345,671.186 231.012,500.853 232,330.5C 235.036,295.921 252.87,272.755 285.5,261C 319.057,252.01 347.557,260.177 371,285.5C 381.803,299.236 387.469,314.902 388,332.5C 388.985,501.85 388.652,671.183 387,840.5C 379.653,875.68 358.487,897.013 323.5,904.5 Z"/></g>
<g><path style="opacity:0.989" fill="#32cb63" d="M 969.5,904.5 C 961.167,904.5 952.833,904.5 944.5,904.5C 921.785,899.958 903.618,888.292 890,869.5C 809.618,749.23 729.118,629.064 648.5,509C 723.794,432.706 799.46,356.706 875.5,281C 899.463,260.674 926.463,255.341 956.5,265C 995.281,284.462 1011.11,315.629 1004,358.5C 1000.75,369.676 995.414,379.676 988,388.5C 940.833,435.667 893.667,482.833 846.5,530C 903.667,616.5 960.833,703 1018,789.5C 1035.64,824.017 1032.31,856.351 1008,886.5C 1004.47,890.369 1000.63,893.869 996.5,897C 987.503,899.996 978.503,902.496 969.5,904.5 Z"/></g>
<g><path style="opacity:0.992" fill="#32cb63" d="M 90.5,904.5 C 81.5,904.5 72.5,904.5 63.5,904.5C 28.5,896.833 7.16667,875.5 -0.5,840.5C -0.5,753.833 -0.5,667.167 -0.5,580.5C 7.10289,545.065 28.7696,523.898 64.5,517C 107.468,512.692 136.634,530.525 152,570.5C 153.515,576.075 154.515,581.742 155,587.5C 155.978,672.19 155.645,756.857 154,841.5C 146.242,876.092 125.075,897.092 90.5,904.5 Z"/></g>
</svg>
